<svg width="96" height="96" xmlns="http://www.w3.org/2000/svg" xmlns:xlink="http://www.w3.org/1999/xlink" xml:space="preserve" overflow="hidden"><g transform="translate(-24 -159)"><path d="M98.005 241 98.005 167 46.005 167 46.005 241 34.005 241 34.005 247 46.005 247 48.004 247 52.005 247 52.005 173 92.005 173 92.005 247 96.005 247 98.005 247 110.005 247 110.005 241 98.005 241Z"/><path d="M55.005 247 89.005 247 89.005 176 55.005 176ZM74 211 79.684 211C80.2363 209.438 81.9503 208.619 83.5124 209.172 85.0745 209.724 85.8931 211.438 85.3409 213 84.7886 214.562 83.0745 215.381 81.5124 214.828 80.6581 214.526 79.9861 213.854 79.684 213L74 213Z"/></g></svg>