<svg width="96" height="96" xmlns="http://www.w3.org/2000/svg" xmlns:xlink="http://www.w3.org/1999/xlink" xml:space="preserve" overflow="hidden"><g transform="translate(-24 -17)"><path d="M70.5 24 72.5 24 72.5 29 70.5 29Z"/><path d="M77.5 37.115C77.5 40.4287 74.8137 43.115 71.5 43.115 68.1863 43.115 65.5 40.4287 65.5 37.115 65.5 33.8013 68.1863 31.115 71.5 31.115 74.8137 31.115 77.5 33.8013 77.5 37.115Z"/><path d="M70.5 45.115 72.5 45.115 72.5 50.115 70.5 50.115Z"/><path d="M61.864 45.326 63.278 46.773 66.749 43.221 65.335 41.773 61.864 45.326Z"/><path d="M81.136 28.789 79.722 27.342 76.251 30.894 77.665 32.342 81.136 28.789Z"/><path d="M79.5 36 84.5 36 84.5 38 79.5 38Z"/><path d="M76.251 43.221 79.722 46.773 81.136 45.326 77.665 41.773 76.251 43.221Z"/><path d="M66.749 30.894 63.278 27.342 61.864 28.789 65.335 32.342 66.749 30.894Z"/><path d="M59.7 104.175 57.947 105.115 82.124 105.115 82.211 105.082C92.6896 101.054 103.532 98.0442 114.587 96.094L115 96.021 115 85.721 114.422 85.812C95.2771 88.8067 76.776 95.0151 59.7 104.175Z"/><path d="M90.816 104.14 87.857 105.115 115 105.115 115 98.052 114.412 98.152C106.416 99.5925 98.5313 101.593 90.816 104.14Z"/><path d="M114.434 73.225C110.262 73.78 106.117 74.507 102 75.364L102 70C103.183 69.973 105.535 69.742 106.927 68.4 108.842 66.56 108.471 63.068 108.471 63.068 108.471 63.068 105 62.568 103.083 64.409 102.617 64.8756 102.248 65.4309 102 66.042L102 64.619C103.057 63.5814 103.702 62.1958 103.815 60.719 103.815 58.063 101.041 55.541 101.041 55.541 101.041 55.541 98.267 58.063 98.267 60.718 98.3709 62.1554 98.9856 63.5083 100 64.532L100 64.532 100 66.042C99.7516 65.4309 99.3834 64.8756 98.917 64.409 97.003 62.568 93.529 63.076 93.529 63.076 93.529 63.076 93.158 66.568 95.073 68.408 96.465 69.746 98.817 69.977 100 70L100 75.784C76.9715 80.8632 55.2019 90.5287 35.99 104.204L34.718 105.111 53.908 105.111 54.024 105.044C72.7124 94.2558 93.2465 87.0422 114.576 83.772L115 83.707 115 73.15Z"/><path d="M58.5 36 63.5 36 63.5 38 58.5 38Z"/><path d="M37.47 99.467 36.205 99.289C34.031 98.983 31.721 98.714 29.005 98.447L29.005 105.115 29.726 105.115 29.86 105.015C32.4 103.072 34.486 101.541 36.424 100.198Z"/><path d="M54.288 89.312 54.46 89.221C58.168 87.258 61.982 85.41 65.797 83.727L66.975 83.208 65.756 82.8C53.8312 78.7817 41.508 76.0603 29 74.683L29 84.655C37.4663 85.5876 45.8546 87.1276 54.1 89.263Z"/><path d="M46 59.575 46 65.044C40.3907 63.924 34.724 63.0817 29 62.517L29 72.675C42.8192 74.1865 56.4126 77.3183 69.5 82.006L69.681 82.071 69.859 82C73.904 80.336 78.059 78.8 82.217 77.448L83.459 77.043 82.259 76.516C71.2517 71.6579 59.7708 67.9531 48 65.461L48 59.575C49.183 59.548 51.535 59.318 52.927 57.975 54.842 56.135 54.471 52.644 54.471 52.644 54.471 52.644 51 52.14 49.083 53.98 48.6169 54.4468 48.2486 55.002 48 55.613L48 54.19C49.057 53.1525 49.7019 51.7668 49.815 50.29 49.815 47.635 47.041 45.112 47.041 45.112 47.041 45.112 44.267 47.635 44.267 50.29 44.3718 51.726 44.9865 53.0773 46 54.1L46 54.1 46 55.609C45.7514 54.998 45.3831 54.4428 44.917 53.976 43.003 52.136 39.529 52.644 39.529 52.644 39.529 52.644 39.158 56.135 41.073 57.975 42.465 59.318 44.817 59.548 46 59.575Z"/><path d="M39.9 97.839 40.062 97.733C43.477 95.489 47.026 93.333 50.608 91.32L51.722 90.695 50.48 90.395C43.4042 88.7083 36.2303 87.4629 29 86.666L29 96.431C32.578 96.784 36.178 97.242 39.712 97.808Z"/></g></svg>