<svg width="96" height="96" xmlns="http://www.w3.org/2000/svg" xmlns:xlink="http://www.w3.org/1999/xlink" xml:space="preserve" overflow="hidden"><g><path d="M45 26 51 26 51 50 45 50Z" fill="#275317"/><path d="M55 14 68 14 68 22 55 22Z" fill="#275317"/><path d="M76 26 55 26 55 50C55 52.2 56.8 54 59 54L60 54 60 78C60 80.2 61.8 82 64 82L78 82C80.2 82 82 80.2 82 78L82 59 76 26Z" fill="#275317"/><path d="M14 59 14 78C14 80.2 15.8 82 18 82L32 82C34.2 82 36 80.2 36 78L36 54 37 54C39.2 54 41 52.2 41 50L41 26 20 26 14 59Z" fill="#275317"/><path d="M28 14 41 14 41 22 28 22Z" fill="#275317"/></g></svg>