<svg width="49" height="48" xmlns="http://www.w3.org/2000/svg" xmlns:xlink="http://www.w3.org/1999/xlink" xml:space="preserve" overflow="hidden"><g><path d="M42.75 37.8 36.5 31.55C35.65 30.7 34.5 30.4 33.4 30.6L31.2 28.4C33.15 25.9 34.3 22.7 34.3 19.3 34.3 11.05 27.55 4.3 19.3 4.3 11.05 4.3 4.3 11.05 4.3 19.3 4.3 27.55 11.05 34.3 19.3 34.3 22.7 34.3 25.85 33.15 28.4 31.2L30.6 33.4C30.4 34.5 30.7 35.65 31.55 36.5L37.8 42.75C38.5 43.45 39.4 43.8 40.3 43.8 41.2 43.8 42.1 43.45 42.8 42.75 44.1 41.35 44.1 39.15 42.75 37.8ZM19.25 31.25C12.65 31.25 7.25 25.85 7.25 19.25 7.25 12.65 12.65 7.25 19.25 7.25 25.85 7.25 31.25 12.65 31.25 19.25 31.25 25.85 25.85 31.25 19.25 31.25Z" transform="matrix(-1.02083 0 0 1 49 0)"/></g></svg>