<svg width="96" height="96" xmlns="http://www.w3.org/2000/svg" xmlns:xlink="http://www.w3.org/1999/xlink" xml:space="preserve" overflow="hidden"><g transform="translate(-5 -627)"><path d="M64.1 688.4C64.1 688.5 64 688.6 64 688.6 64 688.8 64.2 689 64.5 689L67.5 689C67.4 688.6 67.4 688.2 67.6 687.9L70.3 683.6 69.1 681.6C69.1 681.5 69 681.5 69 681.5 68.8 681.4 68.5 681.4 68.4 681.6L64.1 688.4 64.1 688.4Z" fill="#275317"/><path d="M68.6 688.9C68.7 689 68.8 689.1 69 689.1L82.6 689.1C82.8 689.1 82.9 689 83 688.9 83.1 688.8 83.1 688.6 83 688.4L76.3 677.4C76.2 677.3 76.1 677.2 75.9 677.2 75.9 677.2 75.9 677.2 75.8 677.2 75.8 677.2 75.8 677.2 75.7 677.2 75.6 677.2 75.4 677.3 75.3 677.4L68.6 688.4C68.6 688.6 68.6 688.7 68.6 688.9ZM73.1 683.6 75.8 679.2 78.6 683.7 76.8 682.6 75.7 683.6 74.6 682.6 73.1 683.6Z" fill="#275317"/><path d="M80.8 678C80.8 678.497 80.3971 678.9 79.9 678.9 79.4029 678.9 79 678.497 79 678 79 677.503 79.4029 677.1 79.9 677.1 80.3971 677.1 80.8 677.503 80.8 678Z" fill="#275317"/><path d="M63 676 84 676 84 690 63 690 63 676ZM60 693 87 693 87 673 60 673 60 693Z" fill="#275317"/><path d="M27 665 87 665 87 669 27 669Z" fill="#275317"/><path d="M56 681 33.4 681 37 684.6 37.2 685 56 685Z" fill="#275317"/><path d="M27 673 27 674.5 29.5 677 56 677 56 673Z" fill="#275317"/><path d="M39.8 693 56 693 56 689 38.5 689Z" fill="#275317"/><path d="M33 687 34.1 690.5 33.5 691.1 30 690 30 690C29.2 689.2 29.2 687.9 30 687.1 30.8 686.3 32.1 686.2 33 687ZM11.5 673.7 29.2 691.4 37 694 34.4 686.2 16.7 668.5 11.5 673.7Z" fill="#275317"/><path d="M7.4 667.5C6.8 668.1 6.9 669.1 7.5 669.7L10.4 672.6 15.6 667.4 12.7 664.5 12.7 664.5C12.1 663.9 11 663.9 10.4 664.5L7.5 667.4C7.4 667.4 7.4 667.5 7.4 667.5Z" fill="#275317"/><path d="M17 644 17 664.5 23 670.5 23 660 91 660 91 700 23 700 23 689.5 17 683.5 17 706 97 706 97 644 17 644ZM28 654C26.9 654 26 653.1 26 652 26 650.9 26.9 650 28 650 29.1 650 30 650.9 30 652 30 653.1 29.1 654 28 654ZM35 654C33.9 654 33 653.1 33 652 33 650.9 33.9 650 35 650 36.1 650 37 650.9 37 652 37 653.1 36.1 654 35 654ZM42 654C40.9 654 40 653.1 40 652 40 650.9 40.9 650 42 650 43.1 650 44 650.9 44 652 44 653.1 43.1 654 42 654Z" fill="#275317"/></g></svg>